<?xml version="1.0" standalone="no"?><!DOCTYPE svg PUBLIC "-//W3C//DTD SVG 1.1//EN" "http://www.w3.org/Graphics/SVG/1.1/DTD/svg11.dtd"><svg t="1591611894324" class="icon" viewBox="0 0 1024 1024" version="1.1" xmlns="http://www.w3.org/2000/svg" p-id="3378" xmlns:xlink="http://www.w3.org/1999/xlink" width="200" height="200"><defs><style type="text/css"></style></defs><path d="M861.09 127.3H162.91c-11.17 0-18.62 7.75-18.62 19.38v730.65c0 11.63 7.44 19.38 18.62 19.38h696.32c11.17 0 18.62-7.75 18.62-19.38h1.86V146.68c0-11.63-7.45-19.38-18.62-19.38zM312.63 661.68c-9.31 5.59-20.48 5.59-29.79 0-9.31-5.59-14.9-14.9-14.9-26.07 0-16.75 13.03-29.79 29.79-29.79 16.76 0 29.79 13.03 29.79 29.79 0 11.18-5.58 20.49-14.89 26.07z m0-145.22c-9.31 5.59-20.48 5.59-29.79 0-9.31-5.59-14.9-14.89-14.9-26.06 0-16.76 13.03-29.79 29.79-29.79 16.76 0 29.79 13.03 29.79 29.79 0 11.17-5.58 20.48-14.89 26.06z m0-145.22c-9.31 5.58-20.48 5.58-29.79 0-9.31-5.59-14.9-14.89-14.9-26.07 0-16.76 13.03-29.79 29.79-29.79 16.76 0 29.79 13.03 29.79 29.79 0 11.18-5.58 20.49-14.89 26.07zM731.54 656.1h-346.3V617h346.3v39.1z m0-145.22h-346.3v-39.1h346.3v39.1z m0-145.22h-346.3v-39.1h346.3v39.1z" p-id="3379"></path></svg>